<?xml version="1.0" encoding="utf-8"?>
<!-- Uploaded to: SVG Repo, www.svgrepo.com, Generator: SVG Repo Mixer Tools -->
<svg width="800px" height="800px" viewBox="0 0 1024 1024" class="icon"  version="1.1" xmlns="http://www.w3.org/2000/svg"><path d="M734.36 904.3H300.13l-82.66-758.74h599.56L734.36 904.3z" fill="#FFFFFF" /><path d="M734.36 911.8H300.13a7.5 7.5 0 0 1-7.46-6.69L210 146.37a7.5 7.5 0 0 1 7.46-8.31H817a7.5 7.5 0 0 1 7.46 8.31l-82.64 758.75a7.5 7.5 0 0 1-7.46 6.68z m-427.5-15h420.78l81-743.75H225.83z" fill="#66A9F7" /><path d="M217.03 142.6a299.97 67.31 0 1 0 599.94 0 299.97 67.31 0 1 0-599.94 0Z" fill="#FFFFFF" /><path d="M517 217.41c-80.66 0-156.57-7.07-213.75-19.9-62.19-14-93.72-32.43-93.72-54.91s31.53-41 93.72-54.91c57.17-12.84 133.09-19.9 213.75-19.9s156.57 7.07 213.75 19.9c62.19 14 93.72 32.43 93.72 54.91s-31.53 41-93.72 54.91c-57.18 12.83-133.09 19.9-213.75 19.9z m0-134.62c-79.59 0-154.33 6.94-210.47 19.53-26.52 6-48.1 13.11-62.41 20.7-12.63 6.7-19.59 13.65-19.59 19.57s7 12.87 19.59 19.57c14.31 7.59 35.9 14.75 62.41 20.7 56.13 12.6 130.88 19.53 210.47 19.53s154.33-6.94 210.47-19.53c26.52-6 48.1-13.11 62.41-20.7 12.63-6.7 19.59-13.65 19.59-19.57s-7-12.87-19.59-19.57c-14.31-7.59-35.9-14.75-62.41-20.7C671.33 89.73 596.59 82.79 517 82.79z" fill="#66A9F7" /><path d="M300.35 902.49a217.01 48.8 0 1 0 434.02 0 217.01 48.8 0 1 0-434.02 0Z" fill="#FFFFFF" /><path d="M517.36 958.79c-58.5 0-113.58-5.14-155.09-14.48-46.06-10.36-69.41-24.43-69.41-41.82s23.34-31.49 69.4-41.83c41.51-9.33 96.59-14.48 155.09-14.48s113.58 5.14 155.09 14.48c46.06 10.36 69.42 24.43 69.42 41.82s-23.35 31.52-69.41 41.83c-41.51 9.34-96.59 14.48-155.09 14.48z m0-97.6c-57.43 0-111.34 5-151.8 14.11-19 4.27-34.44 9.4-44.63 14.82-8.19 4.35-13.07 9-13.07 12.37 0 4.92 12.06 16.93 57.71 27.19 40.46 9.1 94.37 14.11 151.8 14.11s111.34-5 151.8-14.11c19-4.27 34.44-9.4 44.63-14.82 8.19-4.35 13.07-9 13.07-12.37 0-4.92-12.06-16.93-57.71-27.19-40.47-9.1-94.38-14.11-151.8-14.11z" fill="#66A9F7" /><path d="M287.03 794.8L254.9 488.42" fill="#FFFFFF" /><path d="M247.463 489.193l14.918-1.565 32.149 306.388-14.919 1.565z" fill="#66A9F7" /><path d="M742 379.29c-0.86-22-101.59-39.64-225-39.64s-224.14 17.68-225 39.64a7.91 7.91 0 0 0 1 4h-0.89l48.24 488.37h0.31c3 18.28 80.63 33 176.47 33s173.52-14.69 176.47-33h0.13l48.22-488.37c0.05-1.29 0.12-2.65 0.05-4z" fill="#DFEDFF" /><path d="M293.57 400.72a2.5 2.5 0 0 1-2.49-2.25l-1.75-17.67h0.26a9.7 9.7 0 0 1-0.07-1.6c0.15-3.73 2.42-7.31 6.76-10.64a2.5 2.5 0 1 1 3 4c-3.1 2.38-4.72 4.69-4.81 6.87a5.41 5.41 0 0 0 0.69 2.75l1.91 3.66h-2.26l1.2 12.18a2.5 2.5 0 0 1-2.24 2.73zM335.84 828.67a2.5 2.5 0 0 1-2.49-2.25l-3-30.57a2.5 2.5 0 0 1 5-0.49l3 30.57a2.5 2.5 0 0 1-2.24 2.73z m-6-61.14a2.5 2.5 0 0 1-2.49-2.25l-3-30.57a2.5 2.5 0 0 1 5-0.49l3 30.57a2.5 2.5 0 0 1-2.24 2.73z m-6-61.14a2.5 2.5 0 0 1-2.49-2.25l-3-30.57a2.5 2.5 0 0 1 5-0.49l3 30.57a2.5 2.5 0 0 1-2.24 2.73z m-6-61.14a2.5 2.5 0 0 1-2.49-2.25l-3-30.57a2.5 2.5 0 0 1 5-0.49l3 30.57a2.5 2.5 0 0 1-2.24 2.73z m-6-61.14a2.5 2.5 0 0 1-2.49-2.25l-3-30.57a2.5 2.5 0 0 1 5-0.49l3 30.57a2.5 2.5 0 0 1-2.24 2.73z m-6-61.14a2.5 2.5 0 0 1-2.49-2.25l-3-30.57a2.5 2.5 0 0 1 5-0.49l3 30.57a2.5 2.5 0 0 1-2.45 2.77z m-6-61.14a2.5 2.5 0 0 1-2.49-2.25l-3-30.57a2.5 2.5 0 0 1 5-0.49l3 30.57a2.5 2.5 0 0 1-2.24 2.73zM350.81 884.55a2.48 2.48 0 0 1-1.19-0.3c-5.86-3.17-9.44-6.48-10.87-10.08h-0.69L336.38 857a2.5 2.5 0 0 1 5-0.49l1.25 12.67h0.17l0.34 2.1c0.44 2.71 3.51 5.68 8.88 8.58a2.5 2.5 0 0 1-1.19 4.7zM517.12 907.14c-5.13 0-10.3 0-15.39-0.13a2.5 2.5 0 1 1 0.08-5c10.11 0.17 20.47 0.17 30.63 0a2.5 2.5 0 1 1 0.08 5c-5.1 0.09-10.28 0.13-15.4 0.13z m-46-1.17H471c-10.54-0.55-20.88-1.29-30.73-2.21a2.5 2.5 0 0 1 0.46-5c9.78 0.91 20 1.65 30.53 2.19a2.5 2.5 0 0 1-0.13 5z m92.09 0a2.5 2.5 0 0 1-0.13-5c10.47-0.54 20.75-1.28 30.53-2.19a2.5 2.5 0 1 1 0.46 5c-9.85 0.92-20.19 1.66-30.73 2.21zM410 900.16h-0.37c-11.24-1.66-21.47-3.58-30.39-5.71a2.5 2.5 0 1 1 1.16-4.86c8.78 2.09 18.86 4 30 5.62a2.5 2.5 0 0 1-0.36 5z m214.33 0a2.5 2.5 0 0 1-0.36-5c11.1-1.64 21.18-3.53 30-5.62a2.5 2.5 0 1 1 1.16 4.86c-8.92 2.13-19.14 4-30.39 5.71zM683.43 884.55a2.5 2.5 0 0 1-1.19-4.7c5.37-2.9 8.45-5.87 8.88-8.58l0.33-2.05 1.26-12.72a2.5 2.5 0 0 1 5 0.49L696 874.17h-0.51c-1.42 3.6-5 6.92-10.87 10.08a2.49 2.49 0 0 1-1.19 0.3zM698.17 829.16h-0.25a2.5 2.5 0 0 1-2.24-2.73l3-30.08a2.5 2.5 0 0 1 5 0.49l-3 30.08a2.5 2.5 0 0 1-2.51 2.24z m5.94-60.16h-0.25a2.5 2.5 0 0 1-2.24-2.73l3-30.08a2.5 2.5 0 0 1 5 0.49l-3 30.08a2.5 2.5 0 0 1-2.51 2.24z m5.89-60.17h-0.25a2.5 2.5 0 0 1-2.24-2.73l3-30.08a2.5 2.5 0 0 1 5 0.49l-3 30.08a2.5 2.5 0 0 1-2.51 2.24z m6-60.16h-0.25a2.5 2.5 0 0 1-2.24-2.73l3-30.08a2.5 2.5 0 0 1 5 0.49l-3 30.08a2.5 2.5 0 0 1-2.51 2.24z m5.94-60.16h-0.25a2.5 2.5 0 0 1-2.24-2.73l3-30.08a2.5 2.5 0 0 1 5 0.49l-3 30.08a2.5 2.5 0 0 1-2.52 2.23z m5.94-60.16h-0.25a2.5 2.5 0 0 1-2.24-2.73l3-30.08a2.5 2.5 0 0 1 5 0.49l-3 30.08a2.5 2.5 0 0 1-2.52 2.23z m5.94-60.16h-0.25a2.5 2.5 0 0 1-2.24-2.73l3-30.08a2.5 2.5 0 0 1 5 0.49l-3 30.08a2.5 2.5 0 0 1-2.52 2.23z m5.93-60.19h-0.25a2.5 2.5 0 0 1-2.24-2.73l2.19-22.27c0.06-1 0.08-1.81 0.08-2.59v-1.08a5.68 5.68 0 0 0-0.75-2.52 2.5 2.5 0 1 1 4.39-2.39 10.7 10.7 0 0 1 1.36 4.72v1.27c0 0.88 0 1.8-0.1 3l-2.2 22.32a2.5 2.5 0 0 1-2.48 2.27z m-24.37-44.8a2.5 2.5 0 0 1-0.78-0.13 254.91 254.91 0 0 0-29-7.4 2.5 2.5 0 0 1 1-4.9 260 260 0 0 1 29.58 7.56 2.5 2.5 0 0 1-0.78 4.87z m-389.92-2.09a2.5 2.5 0 0 1-0.69-4.9c8.5-2.44 18.49-4.72 29.7-6.79a2.5 2.5 0 1 1 0.91 4.92c-11.05 2-20.89 4.28-29.23 6.68a2.49 2.49 0 0 1-0.69 0.1z m330.81-10.4h-0.35c-9.41-1.32-19.48-2.51-29.93-3.54a2.5 2.5 0 1 1 0.49-5c10.52 1 20.66 2.24 30.13 3.56a2.5 2.5 0 0 1-0.34 5z m-271.47-0.95a2.5 2.5 0 0 1-0.32-5 803.58 803.58 0 0 1 30.15-3.29 2.5 2.5 0 1 1 0.45 5c-10.41 0.94-20.5 2-30 3.26z m211.3-5.08h-0.17c-9.79-0.65-19.93-1.19-30.13-1.59a2.5 2.5 0 0 1 0.2-5c10.25 0.4 20.43 0.94 30.27 1.6a2.5 2.5 0 0 1-0.16 5z m-151.1-0.45a2.5 2.5 0 0 1-0.15-5c9.86-0.59 20-1.06 30.27-1.41a2.5 2.5 0 1 1 0.17 5c-10.18 0.34-20.32 0.81-30.14 1.4z m90.67-2c-6.17-0.09-12.44-0.12-18.62-0.13q-5.81 0-11.55 0.05a2.5 2.5 0 0 1 0-5c3.87 0 7.8-0.07 11.69-0.05 6.18 0 12.44 0 18.6 0.14a2.5 2.5 0 0 1 0 5z" fill="#66A9F7" /><path d="M300.79 393.14a2.49 2.49 0 0 1-1.31-0.37c-6.79-4.18-10.14-8.75-9.95-13.58a2.5 2.5 0 0 1 5 0.2c-0.14 3.6 4 7 7.57 9.13a2.5 2.5 0 0 1-1.31 4.63zM517 422c-4.87 0-9.8 0-14.65-0.08a2.5 2.5 0 0 1 0.06-5c9.69 0.11 19.6 0.11 29.23 0a2.5 2.5 0 1 1 0.06 5c-4.82 0.08-9.77 0.08-14.7 0.08z m-43.9-0.76h-0.1c-9.91-0.35-19.77-0.82-29.32-1.4a2.5 2.5 0 0 1 0.3-5c9.5 0.58 19.33 1 29.19 1.39a2.5 2.5 0 0 1-0.09 5z m87.85 0a2.5 2.5 0 0 1-0.09-5c9.87-0.35 19.7-0.82 29.19-1.39a2.5 2.5 0 0 1 0.3 5c-9.54 0.58-19.41 1.05-29.32 1.4z m-146.31-3.6h-0.23c-10.12-0.92-19.95-2-29.21-3.17a2.5 2.5 0 0 1 0.63-5c9.2 1.18 19 2.24 29 3.15a2.5 2.5 0 0 1-0.22 5z m204.77 0a2.5 2.5 0 0 1-0.22-5c10.07-0.91 19.84-2 29-3.15a2.5 2.5 0 0 1 0.63 5 813.88 813.88 0 0 1-29.21 3.17z m-262.85-7.56a2.54 2.54 0 0 1-0.45 0c-10.77-1.94-20.46-4.09-28.81-6.38a2.5 2.5 0 0 1 1.32-4.82c8.21 2.25 17.75 4.36 28.37 6.28a2.5 2.5 0 0 1-0.44 5z m320.92 0a2.5 2.5 0 0 1-0.44-5c10.62-1.92 20.17-4 28.38-6.28a2.5 2.5 0 1 1 1.32 4.82c-8.35 2.29-18 4.44-28.81 6.38a2.54 2.54 0 0 1-0.42 0zM733.26 393.14a2.5 2.5 0 0 1-1.31-4.63c3.53-2.18 7.71-5.53 7.57-9.13a2.5 2.5 0 1 1 5-0.2c0.19 4.83-3.16 9.4-9.95 13.58a2.49 2.49 0 0 1-1.31 0.38z" fill="#66A9F7" /></svg>